<svg width="73" height="69" viewBox="0 0 73 69" fill="none" xmlns="http://www.w3.org/2000/svg">
<path d="M0 69L47.4466 52.2035L16.9452 21.9698L0 69ZM42.4647 37.1874L61.4095 18.409C61.803 18.0179 62.2705 17.7077 62.7851 17.496C63.2998 17.2843 63.8515 17.1753 64.4088 17.1753C64.966 17.1753 65.5177 17.2843 66.0324 17.496C66.5471 17.7077 67.0146 18.0179 67.4081 18.409L69.4076 20.3909L73 16.8301L71.0005 14.8481C69.249 13.1212 66.8791 12.1519 64.4088 12.1519C61.9384 12.1519 59.5685 13.1212 57.8171 14.8481L38.8723 33.6266L42.4647 37.1874V37.1874ZM27.3157 18.2074L25.3162 20.1894L28.9085 23.7502L30.9081 21.7683C32.6502 20.0322 33.6282 17.6831 33.6282 15.2344C33.6282 12.7858 32.6502 10.4367 30.9081 8.70058L28.9085 6.7186L25.3162 10.313L27.3157 12.295C28.9424 13.9075 28.9424 16.5949 27.3157 18.2074ZM51.039 35.0039L45.6504 40.3452L49.2428 43.906L54.6314 38.5647C55.0249 38.1737 55.4924 37.8634 56.007 37.6518C56.5217 37.4401 57.0735 37.3311 57.6307 37.3311C58.1879 37.3311 58.7396 37.4401 59.2543 37.6518C59.769 37.8634 60.2365 38.1737 60.63 38.5647L66.0863 43.9732L69.6787 40.4124L64.2224 35.0039C62.4709 33.277 60.101 32.3077 57.6307 32.3077C55.1603 32.3077 52.7904 33.277 51.039 35.0039V35.0039ZM44.2609 14.8481L32.0942 26.908L35.6866 30.4688L47.8533 18.409C49.5954 16.6729 50.5734 14.3238 50.5734 11.8751C50.5734 9.42645 49.5954 7.07736 47.8533 5.34128L42.4647 0L38.8723 3.56086L44.2609 8.90214C45.8877 10.5482 45.8877 13.2356 44.2609 14.8481V14.8481Z" fill="#FF7700"/>
</svg>
