<svg width="24" height="24" viewBox="0 0 24 24" fill="none" xmlns="http://www.w3.org/2000/svg">
<path d="M8.40503 24H9.60336V21.6H8.41821C8.04913 21.5928 4.81007 21.3924 4.81007 16.8C4.81007 14.4084 4.01318 12.9048 3.01019 12C4.01318 11.0952 4.81007 9.5916 4.81007 7.2C4.81007 2.6076 8.04913 2.4072 8.40503 2.4H9.60336V0H8.40264C6.33074 0.0048 2.41342 1.5168 2.41342 7.2C2.41342 10.56 0.402636 10.788 0 10.8L0.0167766 13.2C0.115039 13.2 2.41342 13.2408 2.41342 16.8C2.41342 22.4832 6.33074 23.9952 8.40503 24ZM23.9832 10.8C23.885 10.8 21.5866 10.7592 21.5866 7.2C21.5866 1.5168 17.6693 0.0048 15.595 0H14.3966V2.4H15.5818C15.9509 2.4072 19.1899 2.6076 19.1899 7.2C19.1899 9.5916 19.9868 11.0952 20.9898 12C19.9868 12.9048 19.1899 14.4084 19.1899 16.8C19.1899 21.3924 15.9509 21.5928 15.595 21.6H14.3966V24H15.5974C17.6693 23.9952 21.5866 22.4832 21.5866 16.8C21.5866 13.44 23.5974 13.212 24 13.2L23.9832 10.8Z" fill="#FCFCFC"/>
</svg>
