<svg width="46" height="46" viewBox="0 0 46 46" fill="none" xmlns="http://www.w3.org/2000/svg">
<path d="M13.2937 19.2937C13.3866 19.2006 13.4969 19.1267 13.6184 19.0763C13.7398 19.0259 13.8701 19 14.0016 19C14.1331 19 14.2633 19.0259 14.3848 19.0763C14.5062 19.1267 14.6165 19.2006 14.7094 19.2937L20.0003 24.5866L25.2911 19.2937C25.3841 19.2008 25.4944 19.127 25.6159 19.0767C25.7373 19.0264 25.8675 19.0005 25.999 19.0005C26.1304 19.0005 26.2606 19.0264 26.382 19.0767C26.5035 19.127 26.6138 19.2008 26.7068 19.2937C26.7998 19.3867 26.8735 19.497 26.9238 19.6185C26.9741 19.7399 27 19.8701 27 20.0016C27 20.133 26.9741 20.2632 26.9238 20.3847C26.8735 20.5061 26.7998 20.6165 26.7068 20.7094L21.414 26.0003L26.7068 31.2911C26.7998 31.3841 26.8735 31.4944 26.9238 31.6159C26.9741 31.7373 27 31.8675 27 31.999C27 32.1304 26.9741 32.2606 26.9238 32.382C26.8735 32.5035 26.7998 32.6138 26.7068 32.7068C26.6138 32.7998 26.5035 32.8735 26.382 32.9238C26.2606 32.9741 26.1304 33 25.999 33C25.8675 33 25.7373 32.9741 25.6159 32.9238C25.4944 32.8735 25.3841 32.7998 25.2911 32.7068L20.0003 27.414L14.7094 32.7068C14.6165 32.7998 14.5061 32.8735 14.3847 32.9238C14.2632 32.9741 14.133 33 14.0016 33C13.8701 33 13.7399 32.9741 13.6185 32.9238C13.497 32.8735 13.3867 32.7998 13.2937 32.7068C13.2008 32.6138 13.127 32.5035 13.0767 32.382C13.0264 32.2606 13.0005 32.1304 13.0005 31.999C13.0005 31.8675 13.0264 31.7373 13.0767 31.6159C13.127 31.4944 13.2008 31.3841 13.2937 31.2911L18.5866 26.0003L13.2937 20.7094C13.2006 20.6165 13.1267 20.5062 13.0763 20.3848C13.0259 20.2633 13 20.1331 13 20.0016C13 19.8701 13.0259 19.7398 13.0763 19.6184C13.1267 19.4969 13.2006 19.3866 13.2937 19.2937Z" fill="#D10000"/>
</svg>
