<svg width="25" height="25" viewBox="0 0 25 25" fill="none" xmlns="http://www.w3.org/2000/svg">
<path d="M24.1981 12.5549L13.9692 1.73005L13.2835 1.0041C13.1273 0.839779 12.9161 0.747559 12.6958 0.747559C12.4756 0.747559 12.2644 0.839779 12.1082 1.0041L1.19359 12.5549C1.03352 12.7237 0.907005 12.9248 0.821528 13.1462C0.73605 13.3677 0.693337 13.605 0.695911 13.8442C0.706499 14.8309 1.48214 15.6185 2.41397 15.6185H3.53905V24.7476H21.8527V15.6185H23.0016C23.4542 15.6185 23.8804 15.4307 24.2008 15.0915C24.3585 14.9251 24.4834 14.7271 24.5684 14.5092C24.6534 14.2912 24.6967 14.0576 24.6958 13.8218C24.6958 13.3453 24.5184 12.894 24.1981 12.5549V12.5549ZM14.1783 22.7295H11.2134V17.0115H14.1783V22.7295ZM19.9466 13.6004V22.7295H15.8725V16.3388C15.8725 15.7194 15.3987 15.2177 14.8136 15.2177H10.5781C9.99302 15.2177 9.51916 15.7194 9.51916 16.3388V22.7295H5.44506V13.6004H2.90371L12.6985 3.23802L13.31 3.88549L22.4906 13.6004H19.9466Z" fill="black"/>
</svg>
