<svg width="27" height="21" viewBox="0 0 27 21" fill="none" xmlns="http://www.w3.org/2000/svg">
<path d="M13.5 10.5L3.429 6.58875L4.05 21H1.35L1.998 6.02437L0 5.25L13.5 0L27 5.25L13.5 10.5ZM13.5 3.9375C12.7575 3.9375 12.15 4.22625 12.15 4.59375C12.15 4.96125 12.7575 5.25 13.5 5.25C14.2425 5.25 14.85 4.96125 14.85 4.59375C14.85 4.22625 14.2425 3.9375 13.5 3.9375ZM13.5 11.8125L21.0195 8.88563C21.978 10.1194 22.6395 11.6025 22.8555 13.2169C22.4505 13.1644 22.032 13.125 21.6 13.125C18.1575 13.125 15.147 14.9231 13.5 17.6006C12.664 16.2366 11.478 15.107 10.0581 14.3225C8.63827 13.5379 7.03317 13.1253 5.4 13.125C4.968 13.125 4.5495 13.1644 4.1445 13.2169C4.3605 11.6025 5.022 10.1194 5.9805 8.88563L13.5 11.8125Z" fill="#00CDBD"/>
</svg>
