<svg width="18" height="22" viewBox="0 0 18 22" fill="none" xmlns="http://www.w3.org/2000/svg">
<path d="M15.75 8.8H5.625V5.5C5.625 3.6806 7.13925 2.2 9 2.2C10.8608 2.2 12.375 3.6806 12.375 5.5H14.625C14.625 2.4673 12.1016 0 9 0C5.89838 0 3.375 2.4673 3.375 5.5V8.8H2.25C1.65326 8.8 1.08097 9.03179 0.65901 9.44437C0.237053 9.85695 0 10.4165 0 11V19.8C0 20.3835 0.237053 20.9431 0.65901 21.3556C1.08097 21.7682 1.65326 22 2.25 22H15.75C16.3467 22 16.919 21.7682 17.341 21.3556C17.7629 20.9431 18 20.3835 18 19.8V11C18 10.4165 17.7629 9.85695 17.341 9.44437C16.919 9.03179 16.3467 8.8 15.75 8.8ZM6.81862 14.8489C6.95691 14.3313 7.28318 13.8806 7.73649 13.581C8.1898 13.2814 8.73915 13.1534 9.28193 13.2209C9.82471 13.2884 10.3238 13.5468 10.686 13.9478C11.0481 14.3488 11.2486 14.865 11.25 15.4C11.2494 15.7847 11.145 16.1625 10.9475 16.4952C10.75 16.8279 10.4663 17.1039 10.125 17.2953V19.8H7.875V17.2953C7.44932 17.0568 7.11545 16.6883 6.92462 16.2464C6.73379 15.8045 6.69656 15.3135 6.81862 14.8489Z" fill="#00CDBD"/>
</svg>
