<svg width="20" height="21" viewBox="0 0 20 21" fill="none" xmlns="http://www.w3.org/2000/svg">
<path d="M8.00014 0.364C8.13029 0.519686 8.21003 0.710215 8.22904 0.910971C8.24806 1.11173 8.20548 1.31348 8.10681 1.49017C7.33594 2.88342 6.93336 4.44512 6.93612 6.03161C6.93612 11.3094 11.3069 15.5831 16.6936 15.5831C17.3963 15.5831 18.0803 15.5109 18.7377 15.3731C18.9392 15.3301 19.1491 15.3465 19.3411 15.4203C19.5332 15.4941 19.699 15.6219 19.8177 15.7878C19.943 15.9604 20.0069 16.1688 19.9994 16.3808C19.9919 16.5928 19.9135 16.7964 19.7763 16.9599C18.7306 18.2245 17.4113 19.2434 15.9147 19.9423C14.4181 20.6412 12.782 21.0026 11.1255 21C4.97875 21 0 16.1252 0 10.1189C0 5.59847 2.81872 1.72118 6.83212 0.0778633C7.03204 -0.00531087 7.25398 -0.022382 7.46459 0.0292143C7.67521 0.0808106 7.86314 0.198288 8.00014 0.364Z" fill="white"/>
</svg>
