<svg width="17" height="18" viewBox="0 0 17 18" fill="none" xmlns="http://www.w3.org/2000/svg">
<path d="M6.80012 0.312C6.91075 0.445445 6.97852 0.608756 6.99469 0.780833C7.01085 0.952909 6.97466 1.12584 6.89078 1.27729C6.23555 2.4715 5.89336 3.8101 5.8957 5.16995C5.8957 9.69377 9.61083 13.3569 14.1896 13.3569C14.7869 13.3569 15.3683 13.295 15.927 13.1769C16.0983 13.1401 16.2767 13.1542 16.44 13.2174C16.6032 13.2806 16.7441 13.3902 16.845 13.5324C16.9515 13.6803 17.0059 13.859 16.9995 14.0407C16.9931 14.2224 16.9265 14.3969 16.8099 14.5371C15.921 15.621 14.7996 16.4943 13.5275 17.0934C12.2554 17.6925 10.8647 18.0022 9.4567 18C4.23194 18 0 13.8216 0 8.67335C0 4.79869 2.39591 1.4753 5.8073 0.06674C5.97723 -0.00455218 6.16588 -0.0191846 6.3449 0.0250408C6.52393 0.0692663 6.68367 0.169961 6.80012 0.312Z" fill="white"/>
</svg>
