<svg width="21" height="21" viewBox="0 0 21 21" fill="none" xmlns="http://www.w3.org/2000/svg">
<path d="M20.1221 9.06874L2.26147 0.147377C2.02053 0.0358547 1.75548 -0.0136924 1.49047 0.00324584C1.22546 0.020184 0.968896 0.10307 0.744137 0.244358C0.519379 0.385646 0.333563 0.580849 0.203604 0.812197C0.0736461 1.04355 0.00367273 1.30369 5.40059e-05 1.56895V19.404C-0.00219616 19.6763 0.0659043 19.9445 0.197773 20.1829C0.329643 20.4212 0.520821 20.6215 0.75283 20.7644C0.984838 20.9073 1.24983 20.9881 1.5222 20.9988C1.79456 21.0095 2.06509 20.9498 2.30763 20.8256L20.1221 11.9042C20.386 11.7719 20.6078 11.5688 20.7629 11.3178C20.9179 11.0668 21 10.7776 21 10.4826C21 10.1877 20.9179 9.89849 20.7629 9.64745C20.6078 9.39641 20.386 9.19338 20.1221 9.06105V9.06874Z" fill="#00AA63"/>
</svg>
