<svg width="34" height="34" viewBox="0 0 34 34" fill="none" xmlns="http://www.w3.org/2000/svg">
<path d="M17 9.91667C15.1213 9.91667 13.3197 10.6629 11.9913 11.9913C10.6629 13.3197 9.91663 15.1214 9.91663 17C9.91663 18.8786 10.6629 20.6803 11.9913 22.0087C13.3197 23.3371 15.1213 24.0833 17 24.0833C18.8786 24.0833 20.6802 23.3371 22.0086 22.0087C23.337 20.6803 24.0833 18.8786 24.0833 17C24.0833 15.1214 23.337 13.3197 22.0086 11.9913C20.6802 10.6629 18.8786 9.91667 17 9.91667Z" fill="#FFB800"/>
<path fill-rule="evenodd" clip-rule="evenodd" d="M17 1.41667C17.3757 1.41667 17.736 1.56592 18.0017 1.8316C18.2674 2.09728 18.4166 2.45761 18.4166 2.83333V4.25C18.4166 4.62572 18.2674 4.98606 18.0017 5.25173C17.736 5.51741 17.3757 5.66667 17 5.66667C16.6242 5.66667 16.2639 5.51741 15.9982 5.25173C15.7325 4.98606 15.5833 4.62572 15.5833 4.25V2.83333C15.5833 2.45761 15.7325 2.09728 15.9982 1.8316C16.2639 1.56592 16.6242 1.41667 17 1.41667ZM4.66504 4.66508C4.93071 4.3995 5.29098 4.2503 5.66663 4.2503C6.04227 4.2503 6.40254 4.3995 6.66821 4.66508L8.79321 6.79008C9.05127 7.05727 9.19406 7.41512 9.19083 7.78657C9.1876 8.15801 9.03861 8.51333 8.77595 8.77599C8.51329 9.03865 8.15797 9.18764 7.78653 9.19087C7.41508 9.1941 7.05723 9.05131 6.79004 8.79325L4.66504 6.66825C4.39946 6.40259 4.25026 6.04232 4.25026 5.66667C4.25026 5.29102 4.39946 4.93075 4.66504 4.66508ZM29.3349 4.66508C29.6005 4.93075 29.7497 5.29102 29.7497 5.66667C29.7497 6.04232 29.6005 6.40259 29.3349 6.66825L27.2099 8.79325C27.0792 8.92856 26.9229 9.03648 26.75 9.11073C26.5772 9.18497 26.3913 9.22405 26.2032 9.22569C26.0151 9.22732 25.8285 9.19148 25.6544 9.12025C25.4803 9.04902 25.3222 8.94382 25.1891 8.81081C25.0561 8.6778 24.9509 8.51962 24.8797 8.34552C24.8085 8.17142 24.7726 7.98487 24.7743 7.79676C24.7759 7.60866 24.815 7.42277 24.8892 7.24993C24.9635 7.07709 25.0714 6.92077 25.2067 6.79008L27.3317 4.66508C27.5974 4.3995 27.9576 4.2503 28.3333 4.2503C28.7089 4.2503 29.0692 4.3995 29.3349 4.66508ZM1.41663 17C1.41663 16.6243 1.56588 16.2639 1.83156 15.9983C2.09723 15.7326 2.45757 15.5833 2.83329 15.5833H4.24996C4.62568 15.5833 4.98602 15.7326 5.25169 15.9983C5.51737 16.2639 5.66663 16.6243 5.66663 17C5.66663 17.3757 5.51737 17.7361 5.25169 18.0017C4.98602 18.2674 4.62568 18.4167 4.24996 18.4167H2.83329C2.45757 18.4167 2.09723 18.2674 1.83156 18.0017C1.56588 17.7361 1.41663 17.3757 1.41663 17ZM28.3333 17C28.3333 16.6243 28.4825 16.2639 28.7482 15.9983C29.0139 15.7326 29.3742 15.5833 29.75 15.5833H31.1666C31.5423 15.5833 31.9027 15.7326 32.1684 15.9983C32.434 16.2639 32.5833 16.6243 32.5833 17C32.5833 17.3757 32.434 17.7361 32.1684 18.0017C31.9027 18.2674 31.5423 18.4167 31.1666 18.4167H29.75C29.3742 18.4167 29.0139 18.2674 28.7482 18.0017C28.4825 17.7361 28.3333 17.3757 28.3333 17ZM8.79321 25.2067C9.05879 25.4724 9.20799 25.8327 9.20799 26.2083C9.20799 26.584 9.05879 26.9443 8.79321 27.2099L6.66821 29.3349C6.40102 29.593 6.04317 29.7358 5.67172 29.7325C5.30028 29.7293 4.94496 29.5803 4.6823 29.3177C4.41964 29.055 4.27065 28.6997 4.26742 28.3282C4.26419 27.9568 4.40699 27.5989 4.66504 27.3317L6.79004 25.2067C7.05571 24.9412 7.41598 24.792 7.79163 24.792C8.16727 24.792 8.52754 24.9412 8.79321 25.2067ZM25.2067 25.2067C25.4724 24.9412 25.8326 24.792 26.2083 24.792C26.5839 24.792 26.9442 24.9412 27.2099 25.2067L29.3349 27.3317C29.5929 27.5989 29.7357 27.9568 29.7325 28.3282C29.7293 28.6997 29.5803 29.055 29.3176 29.3177C29.055 29.5803 28.6996 29.7293 28.3282 29.7325C27.9567 29.7358 27.5989 29.593 27.3317 29.3349L25.2067 27.2099C24.9411 26.9443 24.7919 26.584 24.7919 26.2083C24.7919 25.8327 24.9411 25.4724 25.2067 25.2067ZM17 28.3333C17.3757 28.3333 17.736 28.4826 18.0017 28.7483C18.2674 29.0139 18.4166 29.3743 18.4166 29.75V31.1667C18.4166 31.5424 18.2674 31.9027 18.0017 32.1684C17.736 32.4341 17.3757 32.5833 17 32.5833C16.6242 32.5833 16.2639 32.4341 15.9982 32.1684C15.7325 31.9027 15.5833 31.5424 15.5833 31.1667V29.75C15.5833 29.3743 15.7325 29.0139 15.9982 28.7483C16.2639 28.4826 16.6242 28.3333 17 28.3333Z" fill="#FFB800"/>
</svg>
