<svg width="32" height="32" viewBox="0 0 32 32" fill="none" xmlns="http://www.w3.org/2000/svg">
<path d="M16 8.91667C14.1213 8.91667 12.3197 9.66294 10.9913 10.9913C9.6629 12.3197 8.91663 14.1214 8.91663 16C8.91663 17.8786 9.6629 19.6803 10.9913 21.0087C12.3197 22.3371 14.1213 23.0833 16 23.0833C17.8786 23.0833 19.6802 22.3371 21.0086 21.0087C22.337 19.6803 23.0833 17.8786 23.0833 16C23.0833 14.1214 22.337 12.3197 21.0086 10.9913C19.6802 9.66294 17.8786 8.91667 16 8.91667Z" fill="#FFB800"/>
<path fill-rule="evenodd" clip-rule="evenodd" d="M16 0.416667C16.3757 0.416667 16.736 0.565922 17.0017 0.831599C17.2674 1.09728 17.4166 1.45761 17.4166 1.83333V3.25C17.4166 3.62572 17.2674 3.98606 17.0017 4.25173C16.736 4.51741 16.3757 4.66667 16 4.66667C15.6242 4.66667 15.2639 4.51741 14.9982 4.25173C14.7325 3.98606 14.5833 3.62572 14.5833 3.25V1.83333C14.5833 1.45761 14.7325 1.09728 14.9982 0.831599C15.2639 0.565922 15.6242 0.416667 16 0.416667ZM3.66504 3.66508C3.93071 3.3995 4.29098 3.2503 4.66663 3.2503C5.04228 3.2503 5.40254 3.3995 5.66821 3.66508L7.79321 5.79008C8.05127 6.05727 8.19406 6.41512 8.19083 6.78657C8.1876 7.15801 8.03861 7.51333 7.77595 7.77599C7.51329 8.03865 7.15797 8.18764 6.78653 8.19087C6.41508 8.1941 6.05723 8.05131 5.79004 7.79325L3.66504 5.66825C3.39946 5.40259 3.25026 5.04232 3.25026 4.66667C3.25026 4.29102 3.39946 3.93075 3.66504 3.66508ZM28.3349 3.66508C28.6005 3.93075 28.7497 4.29102 28.7497 4.66667C28.7497 5.04232 28.6005 5.40259 28.3349 5.66825L26.2099 7.79325C26.0792 7.92856 25.9229 8.03648 25.75 8.11073C25.5772 8.18497 25.3913 8.22405 25.2032 8.22569C25.0151 8.22732 24.8285 8.19148 24.6544 8.12025C24.4803 8.04902 24.3222 7.94382 24.1891 7.81081C24.0561 7.6778 23.9509 7.51962 23.8797 7.34552C23.8085 7.17141 23.7726 6.98487 23.7743 6.79676C23.7759 6.60866 23.815 6.42277 23.8892 6.24993C23.9635 6.07709 24.0714 5.92077 24.2067 5.79008L26.3317 3.66508C26.5974 3.3995 26.9576 3.2503 27.3333 3.2503C27.7089 3.2503 28.0692 3.3995 28.3349 3.66508ZM0.416626 16C0.416626 15.6243 0.565881 15.2639 0.831558 14.9983C1.09723 14.7326 1.45757 14.5833 1.83329 14.5833H3.24996C3.62568 14.5833 3.98602 14.7326 4.25169 14.9983C4.51737 15.2639 4.66663 15.6243 4.66663 16C4.66663 16.3757 4.51737 16.7361 4.25169 17.0017C3.98602 17.2674 3.62568 17.4167 3.24996 17.4167H1.83329C1.45757 17.4167 1.09723 17.2674 0.831558 17.0017C0.565881 16.7361 0.416626 16.3757 0.416626 16ZM27.3333 16C27.3333 15.6243 27.4825 15.2639 27.7482 14.9983C28.0139 14.7326 28.3742 14.5833 28.75 14.5833H30.1666C30.5423 14.5833 30.9027 14.7326 31.1684 14.9983C31.434 15.2639 31.5833 15.6243 31.5833 16C31.5833 16.3757 31.434 16.7361 31.1684 17.0017C30.9027 17.2674 30.5423 17.4167 30.1666 17.4167H28.75C28.3742 17.4167 28.0139 17.2674 27.7482 17.0017C27.4825 16.7361 27.3333 16.3757 27.3333 16ZM7.79321 24.2067C8.05879 24.4724 8.20799 24.8327 8.20799 25.2083C8.20799 25.584 8.05879 25.9443 7.79321 26.2099L5.66821 28.3349C5.40102 28.593 5.04317 28.7358 4.67172 28.7325C4.30028 28.7293 3.94496 28.5803 3.6823 28.3177C3.41964 28.055 3.27065 27.6997 3.26742 27.3282C3.26419 26.9568 3.40699 26.5989 3.66504 26.3317L5.79004 24.2067C6.05571 23.9412 6.41598 23.792 6.79163 23.792C7.16728 23.792 7.52754 23.9412 7.79321 24.2067ZM24.2067 24.2067C24.4724 23.9412 24.8326 23.792 25.2083 23.792C25.5839 23.792 25.9442 23.9412 26.2099 24.2067L28.3349 26.3317C28.5929 26.5989 28.7357 26.9568 28.7325 27.3282C28.7293 27.6997 28.5803 28.055 28.3176 28.3177C28.055 28.5803 27.6996 28.7293 27.3282 28.7325C26.9567 28.7358 26.5989 28.593 26.3317 28.3349L24.2067 26.2099C23.9411 25.9443 23.7919 25.584 23.7919 25.2083C23.7919 24.8327 23.9411 24.4724 24.2067 24.2067ZM16 27.3333C16.3757 27.3333 16.736 27.4826 17.0017 27.7483C17.2674 28.0139 17.4166 28.3743 17.4166 28.75V30.1667C17.4166 30.5424 17.2674 30.9027 17.0017 31.1684C16.736 31.4341 16.3757 31.5833 16 31.5833C15.6242 31.5833 15.2639 31.4341 14.9982 31.1684C14.7325 30.9027 14.5833 30.5424 14.5833 30.1667V28.75C14.5833 28.3743 14.7325 28.0139 14.9982 27.7483C15.2639 27.4826 15.6242 27.3333 16 27.3333Z" fill="#FFB800"/>
</svg>
